<svg width="84" height="36" viewBox="0 0 84 36" fill="none" xmlns="http://www.w3.org/2000/svg">
<path fill-rule="evenodd" clip-rule="evenodd" d="M41.087 11.662L42.4565 13.6901H44.2826L45.1957 13.1831L45.6522 11.1549L44.2826 9.6338H42.4565L41.087 11.662ZM83.087 19.2676L81.7174 18.2535L78.5218 20.7887L75.7826 21.2958L74.8696 19.7746L73.0435 18.2535H68.9348L65.7392 20.2817L64.3696 21.8028L62.5435 25.8592L58.8913 29.9155L55.6957 31.9437H53.4131L51.587 30.4225L51.1305 27.8873L59.8044 17.7465L63 12.169V11.1549L64.8261 7.09859V5.57746L65.2826 5.07042L64.8261 1.52113L63 0H60.7174L57.9783 1.52113L53.4131 7.60563L49.7609 17.2394V18.7606L48.3913 22.8169V25.3521L47.9348 26.3662L43.8261 30.4225L41.087 31.9437H40.1739L39.2609 30.9296V26.8732L42 20.2817V19.2676L41.087 18.2535H39.7174L38.8044 19.2676L38.3478 21.2958L36.9783 23.831L36.5218 26.3662L31.0435 31.9437H30.1305L28.7609 30.4225V28.9014L29.6739 25.3521L31.9565 20.7887V19.2676L30.587 18.2535L28.7609 19.7746L26.9348 18.2535H22.8261L20.087 19.7746L17.3478 22.8169L15.5218 26.8732L11.8696 30.9296L10.0435 31.9437H8.21741L6.84785 29.4084L7.30437 25.8592L11.4131 14.7042L11.8696 14.1972H15.0652L15.5218 13.6901H26.4783L26.9348 13.1831V11.1549L26.4783 10.6479H13.6957L13.2392 10.1408L15.9783 4.05634V2.02817L15.5218 1.52113H14.1522L13.2392 2.53521L10.5 8.61972V9.6338L9.58698 10.6479H1.82611L0.456543 11.662V13.1831L1.36959 14.1972H7.76089L8.21741 14.7042L4.56524 23.831V25.3521L4.10872 25.8592V31.9437L5.9348 34.4789L8.67393 35.493L9.13046 34.9859L12.3261 34.4789L15.0652 31.9437L15.9783 33.4648L17.8044 34.9859H21.4565L25.5652 31.9437L26.4783 33.4648L28.3044 34.9859L32.8696 34.4789L35.6087 31.9437H36.0652L36.9783 33.9718L38.3478 34.9859H42L44.2826 33.9718L47.9348 30.9296L50.6739 34.4789L53.4131 35.493L56.6087 34.9859L61.6305 31.4366L62.5435 32.9577L64.8261 34.9859H69.3913L71.6739 33.4648L73.9565 30.9296L75.7826 27.3803V24.8451L76.2392 24.338H78.0652L81.7174 22.3099L83.087 20.7887V19.2676ZM71.2174 21.2958L73.0435 23.831V25.8592L71.6739 28.9014L69.8478 30.9296L68.0218 31.9437H66.1957L64.8261 29.9155L65.2826 26.3662L68.9348 21.8028L71.2174 21.2958ZM25.5652 21.2958L26.9348 22.8169V24.338L26.0218 26.3662L22.3696 30.9296L20.5435 31.9437H19.1739L18.2609 30.9296V27.8873L19.6305 24.8451L21.9131 22.3099L23.7392 21.2958H25.5652ZM61.6305 3.5493L62.087 4.05634V5.57746L60.2609 10.6479L57.0652 16.2254L52.5 21.8028L52.0435 20.2817L53.8696 14.1972L56.1522 9.12676L59.8044 4.05634L61.6305 3.5493Z" fill="#151412"/>
</svg>
